<svg xmlns="http://www.w3.org/2000/svg" width="1570.667" height="1570.667" preserveAspectRatio="xMidYMid meet" version="1.0" viewBox="0 0 1178 1178"><metadata>Created by potrace 1.11, written by Peter Selinger 2001-2013</metadata><g fill="#000" stroke="none"><path d="M6139 11753 c0 -10 -1 -892 -1 -1961 0 -1251 -4 -1940 -10 -1934 -6 6 -22 7 -39 2 -18 -5 -29 -5 -29 1 0 6 -5 7 -11 4 -14 -9 -103 -10 -117 -1 -6 3 -13 2 -17 -4 -4 -6 -11 -7 -17 -4 -13 8 -88 11 -88 4 0 -7 -106 -4 -117 3 -5 3 -14 2 -21 -2 -7 -4 -35 -4 -62 -1 -28 4 -50 4 -50 0 0 -7 -77 -3 -90 5 -6 3 -10 1 -10 -5 0 -7 -6 -8 -18 -1 -10 5 -24 6 -32 1 -8 -5 -22 -4 -32 1 -12 6 -18 6 -18 0 0 -6 -11 -6 -30 -1 -17 5 -30 5 -30 0 0 -9 -32 -6 -49 5 -5 3 -12 2 -14 -3 -6 -8 -75 -7 -84 1 -3 3 -16 2 -29 -3 -16 -6 -24 -6 -24 1 0 6 -5 7 -11 4 -14 -9 -103 -10 -117 -1 -6 3 -13 2 -17 -4 -4 -6 -11 -7 -17 -4 -13 8 -88 11 -88 4 0 -7 -106 -4 -117 3 -5 3 -14 2 -21 -2 -7 -4 -35 -4 -62 -1 -28 4 -50 4 -50 0 0 -7 -77 -3 -90 5 -6 3 -10 1 -10 -5 0 -7 -6 -8 -18 -1 -10 5 -24 6 -32 1 -8 -5 -22 -4 -32 1 -12 6 -18 6 -18 0 0 -6 -11 -6 -30 -1 -17 5 -30 5 -30 0 0 -8 -7 -8 -45 0 -5 1 -12 1 -15 0 -12 -4 -70 -5 -70 0 0 3 -18 5 -40 5 -22 0 -40 -2 -40 -5 0 -7 -125 -4 -136 3 -6 3 -16 2 -24 -3 -8 -5 -22 -5 -32 1 -12 6 -18 6 -18 0 0 -7 -9 -7 -25 -1 -14 5 -25 6 -25 2 0 -4 -11 -7 -25 -7 -14 0 -25 4 -25 8 0 5 -5 5 -11 2 -14 -9 -103 -10 -117 -1 -6 3 -13 2 -17 -4 -4 -6 -11 -7 -17 -4 -13 8 -88 11 -88 4 0 -7 -106 -4 -117 3 -5 3 -14 2 -21 -2 -7 -4 -35 -4 -62 -1 -28 4 -50 4 -50 0 0 -7 -77 -3 -90 5 -6 3 -10 1 -10 -5 0 -7 -6 -8 -18 -1 -10 5 -24 6 -32 1 -8 -5 -22 -4 -32 1 -12 6 -18 6 -18 0 0 -6 -11 -6 -30 -1 -17 5 -30 5 -30 0 0 -8 -7 -8 -45 0 -5 1 -12 1 -15 0 -14 -5 -70 -4 -70 1 0 4 -16 3 -35 -1 -21 -5 -35 -4 -35 2 0 5 -5 6 -11 3 -14 -9 -103 -10 -117 -1 -6 3 -13 2 -17 -4 -4 -6 -11 -7 -17 -4 -13 8 -88 11 -88 4 0 -3 -16 -5 -35 -5 -19 0 -35 4 -35 8 0 5 -5 5 -11 2 -14 -9 -103 -10 -117 -1 -6 3 -13 2 -17 -4 -4 -6 -11 -7 -17 -4 -13 8 -88 11 -88 4 0 -7 -106 -4 -117 3 -5 3 -14 2 -21 -2 -7 -4 -35 -4 -62 -1 -28 4 -50 4 -50 0 0 -7 -77 -3 -90 5 -6 3 -10 2 -10 -3 0 -5 -11 -7 -25 -4 l-25 4 2 -3928 3 -3927 2625 -1 2626 -1 -1 635 c0 349 1 643 3 653 4 16 24 17 253 17 l249 0 0 -650 0 -650 23 -1 c29 -1 2165 -1 2195 0 l22 1 0 5880 0 5880 -1875 0 c-1779 0 -1875 -1 -1876 -17z m-2 -7818 l0 -1295 -31 -1 c-36 -1 -387 0 -432 0 l-31 1 0 1288 c0 708 1 1290 3 1293 2 4 113 7 248 8 l243 1 0 -1295z" transform="translate(0.000000,1178.000000) scale(0.100000,-0.100000)"/></g></svg>