<svg xmlns="http://www.w3.org/2000/svg" xmlns:xlink="http://www.w3.org/1999/xlink" id="svg" width="400" height="137.317" version="1.1" viewBox="0 0 400 137.317"><g id="svgg"><path id="path0" fill="#fc0404" fill-rule="evenodd" stroke="none" d="M49.667 22.833 L 49.667 45.667 25.000 45.667 L 0.333 45.667 0.333 91.417 L 0.333 137.167 30.833 137.167 L 61.333 137.167 61.333 129.542 L 61.333 121.917 64.333 121.966 L 67.333 122.015 67.333 129.591 L 67.333 137.167 80.333 137.167 L 93.333 137.167 93.333 68.583 L 93.333 0.000 71.500 0.000 L 49.667 0.000 49.667 22.833 M307.000 68.583 L 307.000 137.167 328.750 137.167 L 350.500 137.167 350.500 122.000 L 350.500 106.833 353.236 106.833 C 354.741 106.833,356.091 106.788,356.236 106.732 C 356.476 106.640,356.500 108.045,356.500 121.899 L 356.500 137.167 378.250 137.167 L 400.000 137.167 400.000 106.583 L 400.000 76.000 392.417 76.000 L 384.833 76.000 384.833 73.083 L 384.833 70.167 392.417 70.167 L 400.000 70.167 400.000 57.915 L 400.000 45.663 385.732 45.669 L 371.464 45.674 364.523 52.582 C 360.706 56.382,357.337 59.738,357.035 60.040 L 356.487 60.590 356.497 68.397 C 356.505 75.489,356.482 76.195,356.240 76.102 C 356.093 76.046,354.741 76.000,353.236 76.000 L 350.500 76.000 350.500 38.000 L 350.500 0.000 328.750 0.000 L 307.000 0.000 307.000 68.583 M102.500 91.417 L 102.500 137.167 149.083 137.167 L 195.667 137.167 195.667 124.917 L 195.667 112.667 170.917 112.667 L 146.167 112.667 146.167 109.750 L 146.167 106.833 170.917 106.833 L 195.667 106.833 195.667 76.250 L 195.667 45.667 149.083 45.667 L 102.500 45.667 102.500 91.417 M204.667 91.417 L 204.667 137.167 251.250 137.167 L 297.833 137.167 297.833 115.750 L 297.833 94.333 276.083 94.333 L 254.333 94.333 254.333 100.518 C 254.333 106.089,254.307 106.692,254.070 106.601 C 253.925 106.546,252.575 106.500,251.070 106.500 L 248.333 106.500 248.333 91.417 L 248.333 76.333 251.070 76.333 C 252.575 76.333,253.925 76.288,254.070 76.232 C 254.307 76.141,254.333 76.745,254.333 82.316 L 254.333 88.500 276.083 88.500 L 297.833 88.500 297.833 67.083 L 297.833 45.667 251.250 45.667 L 204.667 45.667 204.667 91.417 M49.667 91.417 L 49.667 106.500 46.750 106.500 L 43.833 106.500 43.833 91.417 L 43.833 76.333 46.750 76.333 L 49.667 76.333 49.667 91.417 M152.000 83.833 L 152.000 91.333 149.083 91.333 L 146.167 91.333 146.167 83.833 L 146.167 76.333 149.083 76.333 L 152.000 76.333 152.000 83.833"/><path id="path1" fill="#fcbcbc" fill-rule="evenodd" stroke="none" d="M93.333 68.583 C 93.333 114.194,93.389 137.167,93.500 137.167 C 93.611 137.167,93.667 114.194,93.667 68.583 C 93.667 22.972,93.611 0.000,93.500 0.000 C 93.389 0.000,93.333 22.972,93.333 68.583 M306.500 68.583 C 306.500 129.435,306.528 137.167,306.750 137.167 C 306.972 137.167,307.000 129.435,307.000 68.583 C 307.000 7.731,306.972 0.000,306.750 0.000 C 306.528 0.000,306.500 7.731,306.500 68.583 M0.000 91.417 C 0.000 121.806,0.056 137.167,0.167 137.167 C 0.277 137.167,0.333 121.806,0.333 91.417 C 0.333 61.028,0.277 45.667,0.167 45.667 C 0.056 45.667,0.000 61.028,0.000 91.417 M102.167 91.417 C 102.167 121.806,102.223 137.167,102.333 137.167 C 102.444 137.167,102.500 121.806,102.500 91.417 C 102.500 61.028,102.444 45.667,102.333 45.667 C 102.223 45.667,102.167 61.028,102.167 91.417 M204.333 91.417 C 204.333 121.806,204.389 137.167,204.500 137.167 C 204.611 137.167,204.667 121.806,204.667 91.417 C 204.667 61.028,204.611 45.667,204.500 45.667 C 204.389 45.667,204.333 61.028,204.333 91.417 M356.167 68.500 C 356.167 73.500,356.225 76.167,356.333 76.167 C 356.442 76.167,356.500 73.500,356.500 68.500 C 356.500 63.500,356.442 60.833,356.333 60.833 C 356.225 60.833,356.167 63.500,356.167 68.500 M253.944 76.278 C 253.685 76.538,253.820 88.500,254.083 88.500 C 254.301 88.500,254.333 87.704,254.333 82.333 C 254.333 76.704,254.284 75.938,253.944 76.278 M253.873 100.444 C 253.907 105.154,253.964 106.572,254.125 106.625 C 254.289 106.680,254.333 105.384,254.333 100.514 C 254.333 95.109,254.302 94.333,254.081 94.333 C 253.860 94.333,253.835 95.082,253.873 100.444 M356.167 121.917 C 356.167 131.972,356.223 137.167,356.333 137.167 C 356.443 137.167,356.500 131.972,356.500 121.917 C 356.500 111.861,356.443 106.667,356.333 106.667 C 356.223 106.667,356.167 111.861,356.167 121.917 M61.333 129.490 C 61.333 134.497,61.391 137.167,61.500 137.167 C 61.609 137.167,61.667 134.531,61.667 129.593 C 61.667 124.724,61.607 121.983,61.500 121.917 C 61.390 121.849,61.333 124.415,61.333 129.490"/></g></svg>