<svg xmlns="http://www.w3.org/2000/svg" xmlns:xlink="http://www.w3.org/1999/xlink" id="svg" width="400" height="588.756" version="1.1" viewBox="0 0 400 588.756"><g id="svgg"><path id="path0" fill="#fc0404" fill-rule="evenodd" stroke="none" d="M212.400 97.800 L 212.400 195.600 106.200 195.600 L 0.000 195.600 0.000 392.000 L 0.000 588.400 131.400 588.400 L 262.800 588.400 262.800 555.800 L 262.800 523.200 275.400 523.200 L 288.000 523.200 288.000 555.800 L 288.000 588.400 344.000 588.400 L 400.000 588.400 400.000 294.200 L 400.000 0.000 306.200 0.000 L 212.400 0.000 212.400 97.800 M212.400 392.000 L 212.400 456.800 200.000 456.800 L 187.600 456.800 187.600 392.000 L 187.600 327.200 200.000 327.200 L 212.400 327.200 212.400 392.000"/><path id="path1" fill="#fc7474" fill-rule="evenodd" stroke="none"/></g></svg>